<?xml version="1.0" encoding="UTF-8"?>
<svg id="Layer_2" data-name="Layer 2" xmlns="http://www.w3.org/2000/svg" viewBox="0 0 757.75 757.75">
  <defs>
    <style>
      .cls-1 {
        stroke-miterlimit: 10;
      }

      .cls-1, .cls-2 {
        fill: none;
        stroke: #fff;
        stroke-width: 23.42px;
      }

      .cls-2 {
        stroke-linecap: round;
        stroke-linejoin: round;
      }

      .cls-3 {
        fill: #8b5cf6;
      }
    </style>
  </defs>
  <g id="Layer_1-2" data-name="Layer 1">
    <g>
      <circle class="cls-3" cx="378.88" cy="378.88" r="378.88"/>
      <g>
        <g>
          <circle class="cls-1" cx="378.88" cy="312.34" r="33.02"/>
          <path class="cls-2" d="M445.58,435.7c.66-6.3,2.89-33.75-14.7-49-10.74-9.32-25.22-9.11-54.17-8.68-27.96.41-41.94.62-51.96,10-16.07,15.04-13.14,40.85-12.26,47.13"/>
        </g>
        <g>
          <line class="cls-2" x1="389.54" y1="510.74" x2="471.47" y2="553.9"/>
          <line class="cls-2" x1="389.54" y1="510.74" x2="389.54" y2="603.84"/>
          <line class="cls-2" x1="389.54" y1="603.84" x2="471.47" y2="553.9"/>
        </g>
        <path class="cls-2" d="M322.69,567.94h-42.67c-24.38,0-44.32-19.95-44.32-44.32V224.23c0-24.38,19.95-44.32,44.32-44.32h197.71c24.38,0,44.32,19.95,44.32,44.32v294.5"/>
      </g>
    </g>
  </g>
</svg>